<svg width="0" height="0" class="hidden">
  <symbol fill="none" xmlns="http://www.w3.org/2000/svg" viewBox="0 0 14 12" id="todo">
    <path d="M10.96 5.1H5.74c-.497 0-.54.402-.54.9s.043.9.54.9h5.22c.497 0 .54-.402.54-.9s-.043-.9-.54-.9zm1.8 4.5H5.74c-.497 0-.54.402-.54.9s.043.9.54.9h7.02c.497 0 .54-.402.54-.9s-.043-.9-.54-.9zM5.74 2.4h7.02c.497 0 .54-.402.54-.9s-.043-.9-.54-.9H5.74c-.497 0-.54.402-.54.9s.043.9.54.9zM2.86 5.1H1.24C.743 5.1.7 5.502.7 6s.043.9.54.9h1.62c.497 0 .54-.402.54-.9s-.043-.9-.54-.9zm0 4.5H1.24c-.497 0-.54.402-.54.9s.043.9.54.9h1.62c.497 0 .54-.402.54-.9s-.043-.9-.54-.9zm0-9H1.24C.743.6.7 1.002.7 1.5s.043.9.54.9h1.62c.497 0 .54-.402.54-.9S3.357.6 2.86.6z" fill="#7C7C7C"></path>
  </symbol>
	<symbol fill="none" xmlns="http://www.w3.org/2000/svg" viewBox="0 0 10 10" id="close">
    <path d="M6.247 5L9.74 1.508A.883.883 0 008.492.258L5 3.75 1.508.26a.884.884 0 00-1.25 1.25L3.75 5 .26 8.492a.884.884 0 001.25 1.25L5 6.25l3.492 3.49a.884.884 0 001.25-1.25L6.246 5z" fill="#E3E3E3"></path>
  </symbol>
	<symbol fill="none" xmlns="http://www.w3.org/2000/svg" viewBox="0 0 12 12" id="addIcon">
    <path d="M6 1v10M1 6h10" stroke-width="1.5" stroke-linecap="round" stroke-linejoin="round"></path>
  </symbol>
	<symbol xmlns="http://www.w3.org/2000/svg" viewBox="0 0 15 15" id="edit">
    <path d="M0 12.05v2.533c0 .234.183.417.417.417H2.95a.39.39 0 00.291-.125l9.099-9.09L9.215 2.66l-9.09 9.09a.41.41 0 00-.125.3zm14.756-8.682a.829.829 0 000-1.175l-1.95-1.95a.83.83 0 00-1.174 0l-1.525 1.525 3.125 3.125 1.524-1.525z"></path>
  </symbol>
	<symbol xmlns="http://www.w3.org/2000/svg" viewBox="0 0 11 11" id="delite">
    <path d="M6.872 5.5l3.84-3.84A.97.97 0 109.342.284L5.5 4.125 1.66.285A.972.972 0 10.284 1.659L4.125 5.5.285 9.34a.972.972 0 101.374 1.375L5.5 6.875l3.84 3.84a.972.972 0 101.375-1.374L6.872 5.5z"></path>
  </symbol>
</svg>