<svg width="0" height="0" class="hidden">
  <symbol fill="none" xmlns="http://www.w3.org/2000/svg" viewBox="0 0 14 12" id="todo">
    <path d="M10.96 5.1H5.74c-.497 0-.54.402-.54.9s.043.9.54.9h5.22c.497 0 .54-.402.54-.9s-.043-.9-.54-.9zm1.8 4.5H5.74c-.497 0-.54.402-.54.9s.043.9.54.9h7.02c.497 0 .54-.402.54-.9s-.043-.9-.54-.9zM5.74 2.4h7.02c.497 0 .54-.402.54-.9s-.043-.9-.54-.9H5.74c-.497 0-.54.402-.54.9s.043.9.54.9zM2.86 5.1H1.24C.743 5.1.7 5.502.7 6s.043.9.54.9h1.62c.497 0 .54-.402.54-.9s-.043-.9-.54-.9zm0 4.5H1.24c-.497 0-.54.402-.54.9s.043.9.54.9h1.62c.497 0 .54-.402.54-.9s-.043-.9-.54-.9zm0-9H1.24C.743.6.7 1.002.7 1.5s.043.9.54.9h1.62c.497 0 .54-.402.54-.9S3.357.6 2.86.6z" fill="#7C7C7C"></path>
  </symbol>
	<symbol fill="none" xmlns="http://www.w3.org/2000/svg" viewBox="0 0 10 10" id="close">
    <path d="M6.247 5L9.74 1.508A.883.883 0 008.492.258L5 3.75 1.508.26a.884.884 0 00-1.25 1.25L3.75 5 .26 8.492a.884.884 0 001.25 1.25L5 6.25l3.492 3.49a.884.884 0 001.25-1.25L6.246 5z" fill="#E3E3E3"></path>
  </symbol>
</svg>